<?xml version="1.0" encoding="UTF-8"?>
<svg id="Vrstva_2" data-name="Vrstva 2" xmlns="http://www.w3.org/2000/svg" viewBox="0 0 630 444.75">
  <defs>
    <style>
      .cls-1, .cls-2 {
        fill: none;
        stroke: #ff4e08;
        stroke-miterlimit: 10;
      }

      .cls-2 {
        stroke-linecap: round;
      }
    </style>
  </defs>
  <path class="cls-1" d="M325.32,198.59c.32,0,.26,1.38,1.49,2.99.38.5,1.11,1.43,2.39,1.94,1.57.63,3.08.28,3.59.15,1.52-.38,2.24-1.17,2.54-.9.36.32-.75,1.43-.6,2.99.1,1,.6,1.11,1.34,2.54,1.21,2.33,1.2,4.62,1.2,5.23-.02,1.45-.32,1.38-.3,2.84.02,1.24-.11,1.9.39,4.37.63,3.11.46,3.51.1,4.05-.38.56-.66.98-1.38,1-1.39.03-2.59-1.6-2.99-2.99-.58-2.01.46-3.68-.15-4.03-.29-.17-.57.17-1.79.75-1.89.9-2.58.75-3.14,1.49-.4.54-.33.98-.45,1.94-.42,3.31-2.06,3.67-1.79,5.68.13,1.01.69,1.82,1.79,3.44.64.94,1.09,1.38,1.49,2.39.13.32.89,2.22.3,2.69-.55.43-1.98-.55-3.14-1.34-1.22-.83-2.29-1.57-3.14-2.84-.84-1.26-.86-2.15-1.34-4.63-1.08-5.49-1.76-5.04-1.64-7.02.12-2.16.91-2.35,2.24-6.72.59-1.96.89-3.41,1.2-4.93,1.28-6.3,1.21-11.04,1.79-11.05Z"/>
  <path class="cls-1" d="M330.51,219.79c.02,1.35-.12,2.46-.26,3.26-.13.75-.3,1.76-.75,3.02-.44,1.25-.66,1.39-.6,1.94.07.66.44.85,1.49,2.35.7,1,1.05,1.51,1.08,1.9.03.39-.06,1.43-2.2,2.79"/>
  <path class="cls-1" d="M352.59,147.43c-.13-.33-.55-.43-.82-.21-2.21,1.82-5.16,4.54-8.08,8.28-4.03,5.16-6.04,9.74-8.22,14.79-3.35,7.78-2.99,9.5-7.32,20.46-.36.91-1.75,4.42-2.56,6.45-.38.95-.28,2.02.29,2.87.32.48.69,1,1.07,1.44.73.85,1.69,1.96,3.29,2.39,1.62.43,3.4.04,4.63-.9,1.28-.98,1.72-2.36,1.94-2.99.51-1.45.98-1.92,9.11-10.9,3.77-4.16,5.66-6.26,6.12-6.87,2.73-3.63,3.56-5.77,5.53-9.26,5.62-9.96,13.71-18.34,13-19.02-.14-.13-1.93,2.02-4.66,2.97-2.1.72-3.05.56-3.58.35-1.14-.46-.62-3.32-.62-3.32,0-.12.15-2.26-.07-3.06-.13-.47-1.08-1.43-1.93-1.82-.6-.28-.99-.56-3.47,0-1.33.3-1.69.38-2.14.26s-.82-.44-1.03-.86c-.15-.31-.34-.69-.49-1.05Z"/>
  <path class="cls-1" d="M352.76,144.59c.92-2.58,1.79-4.28,1.79-4.28,1.35-2.61,1.49-2.49,2.39-4.38.64-1.34,1.06-2.46,1.49-3.59.74-1.93,1.03-2.96,1.29-3.68.94-2.62,2.49-4.36,4.38-6.47,3.16-3.54,4.98-5.58,8.07-6.47,2.11-.61,2.72-.08,6.97-.8,2.23-.38,4.03-.85,5.18-1.2-.26,2.35-.15,4.25,0,5.58.3,2.63.83,3.43,1.39,7.07.41,2.67.62,4.03.3,5.38-.41,1.74-1.2,2.52-2.79,4.88-1.82,2.69-1.32,2.45-3.59,6.07-1.52,2.43-5.15,7.98-9.06,11.25-.99.83-1.69,1.26-2.89,1.99-1.83,1.12-2.74,1.43-3.68,1.49-.68.05-1.48.1-1.99-.4-.55-.54-.31-1.29-.3-3.09.02-2.19.1-2.99-.62-3.93-.66-.85-2.33-1.34-2.6-1.3-.59.08-.97,0-1.95.35-.87.31-1.7.59-2.49.3-1.09-.41-1.59-1.72-1.69-2.59-.09-.72.07-1.28.4-2.19Z"/>
  <path class="cls-1" d="M368.34,117.11s.7-5.66,2.39-9.16c1.14-2.36,2.8-5.72,6.27-9.16,3.89-3.85,7.87-5.63,9.46-6.27,1.8-.73,4.23-1.68,7.57-1.79,1.51-.05,4.41.03,7.57,1.39.84.36,4.59,3.29,4.58,3.88-.02.7-.49,1.21-.78,1.51-3.73,3.9-9.32,7.84-11.27,9.25-.52.37-1.76,1.27-3.29,2.39-3.03,2.23-2.89,2.19-3.49,2.59-3.67,2.44-7.58,3.14-8.66,3.26-2.29.26-1.93-.05-6.33.67-2.89.47-4.03,1.45-4.03,1.45Z"/>
  <g>
    <path class="cls-1" d="M427.27,82.45c-4.97.02-9.06.2-12.1.37-2,.12-3.69.24-5.85.82-.74.2-1.86.72-6.07,2.49-1.84.77-7.68,4.29-7.68,4.29,0,0,1.84.19,3.94.94,1.96.71,3.11,1.2,4.75,2.49.76.6,2.14,2.35,3.27,3.38,1.31,1.2,1.43,1.22,2.8,1.54,2,.46,3.4.16,7.4-.5,3.71-.62,6.28-.97,8.83-1.09,1.56-.08,2.64-.09,3.09-.1"/>
    <path class="cls-1" d="M428.23,97.12c.69-.03,1.93,0,3.26.07,2.55.14,5.12.48,8.83,1.09,4,.66,5.4.96,7.4.5,1.37-.32,1.49-.34,2.8-1.54,1.13-1.04,2.89-2.63,3.65-3.23,1.64-1.29,2.46-1.88,4.67-2.35s4.2-.94,4.2-.94c0,0-6.41-3.82-8.25-4.59-4.21-1.77-5.34-2.29-6.07-2.49-2.16-.58-3.85-.7-5.85-.82-3.04-.18-7.13-.37-12.1-.37-3.49,0-3.15,0-3.49,0"/>
  </g>
  <path class="cls-1" d="M429.04,143.38c-.15.12-.38.12-.53,0-1.52-1.21-2.46-2.8-3.03-3.94-1.19-2.37-2.11-4.87-2.79-7.24-.63-2.16-.21-.95-4.76-11.79-2.62-6.24-2.67-6.98-3.77-9.5,0,0-1.81-3.87-2.16-4.54-2.33-4.56-4.17-8.01-4.09-8.16,0,0,1.35.67,2.81.82.7.07,1.68.12,5.38-.45,2.96-.46,3.45-.66,5.15-.92,1.7-.26,4.26-.53,7.52-.37,3.26-.16,5.83.11,7.54.37,1.71.26,2.2.46,5.15.92,3.7.57,4.68.52,5.38.45,1.46-.16,4.13-1.1,4.13-1.1,0,0-2.34,4.01-4.67,8.56-.34.67-1.42,3.01-1.42,3.01,0,0-1.51,3.87-4.13,10.11-4.55,10.83-4.61,10.61-5.23,12.77-.68,2.37-2.26,4.67-3.44,7.04-.57,1.14-1.51,2.73-3.03,3.94Z"/>
  <path class="cls-1" d="M384.72,113.2c-.5,1.48-.67,2.71-.39,5.48.13,1.33,1.1,4.9,1.44,6.62.47,2.36.41,2.95.4,5.35,0,.55-.26,1.74-.21,2.59.19,2.74,1.05,5.2,2.76,10.12.63,1.82,1.56,4.45,3.14,7.77,1.51,3.17,1.86,3.29,2.61,5.15.66,1.63,1.28,3.76,1.64,9.41.19,3.05.31,7.18,0,12.77-.1,1.79-.24,3.31-1.2,11.99-.47,4.25-.87,7.79-1.16,10.29.61-.86,1.51-1.99,2.73-3.2.79-.78,2.56-2.48,5.3-4.03,2.14-1.22,3.43-1.53,6.8-3.51,1.02-.6,1.83-1.11,2.46-2.09.99-1.51.93-3.15.9-4.03-.36-10.61.17-12.93.45-13.97.38-1.39.86-2.49,1.57-4.11,1.37-3.12,3.64-6.84,4.31-7.95,2.85-4.71,3.2-7.67,3.68-9.38.75-2.67,1.53-6.64,1.36-11.71-.04-1.06-.19-2.11-.46-3.14-.36-1.36-.83-3.04-1.43-4.94-.54-1.72-3.11-6.68-6.83-16.66-.33-.89-7.9-15.81-8.43-15.5,0,0-2.52,2.58-3.72,3.76-1.33,1.31-3,2.48-4.15,3.38-3.38,2.65-6.22,4.54-6.22,4.54-.19.18-1.49,1.16-2.77,2.05-1.6,1.12-3.56,2.57-4.61,2.94Z"/>
  <path class="cls-1" d="M427.9,196.68c-.34-1.07-1.08-2.83-2.69-4.38-2.29-2.2-4.97-2.62-7.27-2.99-1.63-.26-4.03-.64-6.7-.13-2.01.38-3.85,1.39-5.36,2.78s-3.47,3.23-3.78,3.73c-.95,1.56-.8,2.01-2.49,7.47-1.47,4.74-1.69,4.75-2.29,7.27-.52,2.17-1.05,4.4-1.1,7.37-.04,2.7-.08,5.31,1.29,8.17,1.57,3.26,4.07,5,5.08,5.68,3.08,2.08,5.99,2.44,11.15,3.09,3.13.39,4.69.58,6.57.2.79-.16,6.44-1.4,8.17-5.68.52-1.29.46-2.29.4-4.08-.15-4.31,0-8.63,0-12.95,0-6.02.31-7.71-.3-11.85-.23-1.56-.5-2.83-.7-3.68Z"/>
  <path class="cls-1" d="M404.01,192.58c-1.71.26-7.98,5.5-10.12,8.25-.46.6-.73,1.06-.9,1.57-.39,1.2-.07,2.03-.07,3.66,0,.83-.1,1.45-.3,2.69-.47,2.96-1.62,5.23-1.87,5.75-1.7,3.56-2.7,11.29-3.73,19.61-1.17,9.34-1.96,15.66-2.09,24.65-.08,4.99-.15,11.31.9,19.53,1.3,10.25,2.46,8.72,2.91,14.79,0,0,.23,3.15,2.61,7.99.26.53.74,1.43,1.72,1.79,1.13.41,2.21-.17,2.32-.22.78-.43,1.14-1.12,1.49-1.87,1.31-2.76,1.97-4.14,2.54-6.35.11-.41.41-1.63,1.42-2.54.27-.24.6-.54.9-.45.53.16.55,1.45.6,3.14.1,3.58.22,5.46.37,6.87.28,2.52.66,3.32.82,3.62.39.76,1.21,2.35,2.91,2.84,2.47.71,4.64-1.5,4.74-1.61.5-.53.66-.92,1.57-2.99,1.73-3.91,1.66-3.59,1.94-4.33,1.1-2.92,1.17-5.38,1.27-6.95.31-4.87,1.41-8.94,3.06-15.09,1.36-5.04,2.05-5.89,3.7-12.4.47-1.86,1.26-5.11,1.05-9.19-.1-1.89-.2-3.49-1.05-5.34-.81-1.78-1.52-2.04-2.17-3.88-.18-.5-.4-1.25-.6-4.71-.27-4.69,0-5.39-.71-6.05-.79-.73-1.58-.3-5.3-.45-1.91-.07-3.39-.13-4.97-.49-3.16-.71-5.36-2.31-6.61-3.25-1.58-1.18-3.38-2.52-4.71-4.93-1.63-2.96-1.6-5.79-1.57-8.44.03-2.1.48-3.99,1.34-7.77.19-.84.8-3.02,2.02-7.39,1.05-3.76,1.33-4.7,2.02-6.05,1.44-2.82,3.44-4.17,2.54-4.03Z"/>
  <path class="cls-1" d="M385.52,317.11c.42-1.26.97-3.22,1.25-5.66.18-1.56.04-1.76.2-4.68.15-2.81,1.67-13.5,1.77-13.69.06.2.94,3.87.82,3.39-.6-2.5.75,3.54,1.79,4.78.41.49,1.31,1.56,2.59,1.59,1.61.04,2.76-1.59,3.19-2.19.28-.39.69-1.6,1.49-3.98.23-.68.66-2.67,1.87-4.43.41-.6.84-.61,1.12-.55.34.07.54.74.7,2.59.21,2.53,0,3.23.1,5.28.1,2.03.42,3.45.8,4.58.67,2.05,1.33,2.6,1.59,2.79,1.21.9,3.03,1.1,3.37,1.06,1.74-.24,2.12-.77,3.49-2.45,0,0,2.29-3.75,3.2-6.03-.17,3-.83,5.33-1.39,6.87-.63,1.72-1.22,3.36-2.59,5.18-1.52,2.02-2.92,2.85-3.59,5.18-.22.77-.27,1.4-.3,2.09-.07,1.75-.29,5.08.56,10.05-.16-.43-.22-1.15-.75-1.79-.29-.35-.93-1.11-2.04-1.59-1.1-.48-2.08-.42-2.64-.39-1.28.08-2.33.53-2.95.8-1.05.46-1.31.77-2.04.79-.39.01-.87-.07-1.78-.54-1.13-.59-1.88-1.26-2.96-2.3-1.9-1.81-1.83-1.88-2.68-2.56-1.97-1.58-2.85-1.61-3.17-1.6-.87.02-1.56.44-1.97.76.32-1.11.64-2.22.96-3.33Z"/>
  <path class="cls-1" d="M385.67,319.71c-1.54.39-2.4,2.47-3.59,8.27-.76,3.69-1.14,5.53-1.39,8.17-.09.95-.49,5.18-.1,11.05.31,4.71.91,7.3,2.19,9.76,1.09,2.1,2.08,2.95,3.19,3.19,1.56.33,2.96-.66,3.29-.9,1.72-1.22,2.49-3.32,3.29-5.48.53-1.44.82-2.67,1.99-3.39.23-.14.88-.53,1.39-.3.64.29.62,1.35.8,3.29.23,2.57.35,3.85.9,4.98.3.61,1.05,2.18,2.69,2.79,2.17.8,4.34-.67,4.68-.9,1.98-1.34,2.79-3.57,3.49-6.87,2.11-10.08-.08-15-.8-23.5-.05-.58-.16-2.03-1.2-3.19-.98-1.1-2.3-1.41-2.69-1.49-1.24-.28-2.26-.03-3.19.2-2.02.51-2.24,1.2-3.39,1.29-1.23.1-2.2-.66-4.08-2.19-3.23-2.62-3.97-4.47-6.37-4.78-.45-.06-.73-.09-1.1,0Z"/>
  <path class="cls-1" d="M381.5,353.64s.82,14.3.82,14.3c.44,3.81.83,6.95,1.11,9.08,0,0,.91,5.81.75,12.4-.06,2.39-.27,3.71-.6,5.83-.44,2.79-.8,3.66-1.05,4.18-.56,1.17-1.32,2.03-2.84,3.73-1.94,2.18-2.6,2.35-2.99,2.39-.56.07-1.07-.08-1.64.3-.51.34-.52.72-1.05,1.2-.56.51-1.13.59-1.64.75-1.62.49-3.57,1.97-3.59,3.29,0,.8.7,1.4,1.34,1.94,1.59,1.34,3.14,1.43,6.42,2.24,1.8.44,2.7.66,3.73,1.05,3.75,1.38,3.74,2.67,6.57,3.59,1,.32,4.51,1.3,7.62-.45.58-.33,1.97-1.11,2.69-2.69.6-1.32.27-2.21,0-5.08-.18-1.96-.4-4.29-.15-6.87.28-2.83.83-2.98.9-5.38.07-2.52-.52-3.51-.75-5.38-.42-3.39.86-5.27,2.39-9.71,1.53-4.46.87-4.38,2.69-11.65,1.56-6.22,4.99-14.27,4.59-14.44-.13-.06-.71,1.18-1.85,1.99-.66.47-1.25.69-1.4.74-.37.13-2.18.77-3.87-.13-1.22-.65-1.74-1.75-2.1-2.51-.59-1.25-.68-2.44-.77-3.63,0-.09-.09-1.03-.26-2.9-.08-.9-.13-1.39-.5-1.63-.53-.34-1-.11-1.19,0-.35.2-.78.33-1.18.92s-.77,1.65-.94,2.02c-1.03,2.3-.87,2.54-1.43,3.56-.48.86-.95,1.7-1.9,2.42-.53.41-1.51,1.16-2.76,1.1-1.65-.08-2.75-1.52-3.4-2.37-1.62-2.12-1.77-4.19-1.77-4.19Z"/>
  <path class="cls-1" d="M532.62,199c-.32,0-.26,1.38-1.49,2.99-.38.5-1.11,1.43-2.39,1.94-1.57.63-3.08.28-3.59.15-1.52-.38-2.24-1.17-2.54-.9-.36.32.75,1.43.6,2.99-.1,1-.6,1.11-1.34,2.54-1.21,2.33-1.2,4.62-1.2,5.23.02,1.45.32,1.38.3,2.84-.02,1.24.11,1.9-.39,4.37-.63,3.11-.46,3.51-.1,4.05.38.56.66.98,1.38,1,1.39.03,2.59-1.6,2.99-2.99.58-2.01-.46-3.68.15-4.03.29-.17.57.17,1.79.75,1.89.9,2.58.75,3.14,1.49.4.54.33.98.45,1.94.42,3.31,2.06,3.67,1.79,5.68-.13,1.01-.69,1.82-1.79,3.44-.64.94-1.09,1.38-1.49,2.39-.13.32-.89,2.22-.3,2.69.55.43,1.98-.55,3.14-1.34,1.22-.83,2.29-1.57,3.14-2.84.84-1.26.86-2.15,1.34-4.63,1.08-5.49,1.76-5.04,1.64-7.02-.12-2.16-.91-2.35-2.24-6.72-.59-1.96-.89-3.41-1.2-4.93-1.28-6.3-1.21-11.04-1.79-11.05Z"/>
  <path class="cls-1" d="M527.43,220.2c-.02,1.35.12,2.46.26,3.26.13.75.3,1.76.75,3.02.44,1.25.66,1.39.6,1.94-.07.66-.44.85-1.49,2.35-.7,1-1.05,1.51-1.08,1.9-.03.39.06,1.43,2.2,2.79"/>
  <path class="cls-1" d="M505.39,148.17c.1-.44.63-.63.98-.34,2.2,1.85,5.17,4.59,7.88,8.06,4.03,5.16,6.04,9.74,8.22,14.79,3.35,7.78,2.99,9.5,7.32,20.46.36.91,1.75,4.42,2.56,6.45.38.95.28,2.02-.29,2.87-.32.48-.69,1-1.07,1.44-.73.85-1.69,1.96-3.29,2.39-1.62.43-3.4.04-4.63-.9-1.28-.98-1.72-2.36-1.94-2.99-.51-1.45-.98-1.92-9.11-10.9-3.77-4.16-5.66-6.26-6.12-6.87-2.73-3.63-3.56-5.77-5.53-9.26-5.62-9.96-11.89-17.01-11.17-17.69.14-.13,1.38.86,2.21,1.35,1.91,1.13,3.2,1.32,3.73,1.11,1.14-.46,1.54-1.97,1.64-2.39.54-2.09-.67-3.03,0-4.93.16-.46.5-1.4,1.34-1.79.6-.28,1.11-.11,3.59.45,1.9.43,2.26.48,2.69.3.61-.26.85-.93,1-1.6Z"/>
  <path class="cls-1" d="M505.18,145c-.92-2.58-1.79-4.28-1.79-4.28-1.35-2.61-1.49-2.49-2.39-4.38-.64-1.34-1.06-2.46-1.49-3.59-.74-1.93-1.03-2.96-1.29-3.68-.94-2.62-2.49-4.36-4.38-6.47-3.16-3.54-4.98-5.58-8.07-6.47-2.11-.61-2.72-.08-6.97-.8-2.23-.38-4.03-.85-5.18-1.2.26,2.35.15,4.25,0,5.58-.3,2.63-.83,3.43-1.39,7.07-.41,2.67-.62,4.03-.3,5.38.41,1.74,1.2,2.52,2.79,4.88,1.82,2.69,1.32,2.45,3.59,6.07,1.52,2.43,5.15,7.98,9.06,11.25.99.83,1.69,1.26,2.89,1.99,1.83,1.12,3.06,1.8,4,1.86.68.05,1.16-.26,1.67-.76.55-.54.98-2.46.79-3.54-.38-2.16-.21-1.93.06-3.08.15-.65.8-1.69,1.34-1.79.59-.11,2.31.1,3.29.45.87.31,2.19.59,2.99.3,1.09-.41,1.09-1.72,1.2-2.59.09-.72-.07-1.28-.4-2.19Z"/>
  <path class="cls-1" d="M489.6,117.51s-.7-5.66-2.39-9.16c-1.14-2.36-2.8-5.72-6.27-9.16-3.89-3.85-7.87-5.63-9.46-6.27-1.8-.73-4.23-1.68-7.57-1.79-1.51-.05-4.41.03-7.57,1.39-.84.36-4.59,3.29-4.58,3.88.02.7.49,1.21.78,1.51,3.73,3.9,9.32,7.84,11.27,9.25.52.37,1.76,1.27,3.29,2.39,3.03,2.23,2.89,2.19,3.49,2.59,3.67,2.44,7.58,3.14,8.66,3.26,2.29.26,1.93-.05,6.33.67,2.89.47,4.03,1.45,4.03,1.45Z"/>
  <path class="cls-1" d="M473.22,113.61c.5,1.48.67,2.71.39,5.48-.13,1.33-1.1,4.9-1.44,6.62-.47,2.36-.41,2.95-.4,5.35,0,.55.26,1.74.21,2.59-.19,2.74-1.05,5.2-2.76,10.12-.63,1.82-1.56,4.45-3.14,7.77-1.51,3.17-1.86,3.29-2.61,5.15-.66,1.63-1.28,3.76-1.64,9.41-.19,3.05-.31,7.18,0,12.77.1,1.79.24,3.31,1.2,11.99.47,4.25.87,7.79,1.16,10.29-.61-.86-1.51-1.99-2.73-3.2-.79-.78-2.56-2.48-5.3-4.03-2.14-1.22-3.43-1.53-6.8-3.51-1.02-.6-1.83-1.11-2.46-2.09-.99-1.51-.93-3.15-.9-4.03.36-10.61-.17-12.93-.45-13.97-.38-1.39-.86-2.49-1.57-4.11-1.37-3.12-3.64-6.84-4.31-7.95-2.85-4.71-3.2-7.67-3.68-9.38-.75-2.67-1.53-6.64-1.36-11.71.04-1.06.19-2.11.46-3.14.36-1.36.83-3.04,1.43-4.94.54-1.72,3.11-6.68,6.83-16.66.33-.89,7.9-15.81,8.43-15.5,0,0,2.52,2.58,3.72,3.76,1.33,1.31,3,2.48,4.15,3.38,3.38,2.65,6.22,4.54,6.22,4.54.19.18,1.49,1.16,2.77,2.05,1.6,1.12,3.56,2.57,4.61,2.94Z"/>
  <path class="cls-1" d="M430.05,197.08c.34-1.07,1.08-2.83,2.69-4.38,2.29-2.2,4.97-2.62,7.27-2.99,2.37-.37,6.36-1,10.46,1.2,3.25,1.74,4.89,4.37,5.38,5.18.95,1.56.8,2.01,2.49,7.47,1.47,4.74,1.69,4.75,2.29,7.27.52,2.17,1.05,4.4,1.1,7.37.04,2.7.08,5.31-1.29,8.17-1.57,3.26-4.07,5-5.08,5.68-3.08,2.08-5.99,2.44-11.15,3.09-3.13.39-4.69.58-6.57.2,0,0-4.53-.86-6.96-3.71-.21-.24-.39-.49-.39-.49s-.49-.68-.82-1.47c-.73-1.73-.4-4.08-.4-4.08.15-4.31,0-8.63,0-12.95,0-6.02-.31-7.71.3-11.85.23-1.56.5-2.83.7-3.68Z"/>
  <path class="cls-1" d="M454.27,193.91c-.19-.2.06-.51.3-.37,2.48,1.44,8.89,5.36,9.49,7.7.19.73.73,1.06.9,1.57.39,1.2.07,2.03.07,3.66,0,.83.1,1.45.3,2.69.47,2.96,1.62,5.23,1.87,5.75,1.7,3.56,2.7,11.29,3.73,19.61,1.17,9.34,1.96,15.66,2.09,24.65.08,4.99.15,11.31-.9,19.53-1.3,10.25-2.46,8.72-2.91,14.79,0,0-.23,3.15-2.61,7.99-.26.53-.74,1.43-1.72,1.79-1.13.41-2.21-.17-2.32-.22-.78-.43-1.14-1.12-1.49-1.87-1.31-2.76-1.97-4.14-2.54-6.35-.11-.41-.41-1.63-1.42-2.54-.27-.24-.6-.54-.9-.45-.53.16-.55,1.45-.6,3.14-.1,3.58-.22,5.46-.37,6.87-.28,2.52-.66,3.32-.82,3.62-.39.76-1.21,2.35-2.91,2.84-2.47.71-4.64-1.5-4.74-1.61-.5-.53-.66-.92-1.57-2.99-1.73-3.91-1.66-3.59-1.94-4.33-1.1-2.92-1.17-5.38-1.27-6.95-.31-4.87-1.41-8.94-3.06-15.09-1.36-5.04-2.05-5.89-3.7-12.4-.47-1.86-1.26-5.11-1.05-9.19.1-1.89.2-3.49,1.05-5.34.81-1.78,1.52-2.04,2.17-3.88.18-.5.4-1.25.6-4.71.27-4.69,0-5.39.71-6.05.79-.73,1.58-.3,5.3-.45,1.91-.07,3.39-.13,4.97-.49,3.16-.71,5.36-2.31,6.61-3.25,1.58-1.18,3.38-2.52,4.71-4.93,1.63-2.96,1.6-5.79,1.57-8.44-.03-2.1-.48-3.99-1.34-7.77-.19-.84-.8-3.02-2.02-7.39-1.05-3.76-1.33-4.7-2.02-6.05-.78-1.52-1.63-2.5-2.2-3.11Z"/>
  <path class="cls-1" d="M472.42,317.51c-.42-1.26-.97-3.22-1.25-5.66-.18-1.56-.04-1.76-.2-4.68-.15-2.81-1.67-13.5-1.77-13.69-.06.2-.94,3.87-.82,3.39.6-2.5-.75,3.54-1.79,4.78-.41.49-1.31,1.56-2.59,1.59-1.61.04-2.76-1.59-3.19-2.19-.28-.39-.69-1.6-1.49-3.98-.23-.68-.66-2.67-1.87-4.43-.41-.6-.84-.61-1.12-.55-.34.07-.54.74-.7,2.59-.21,2.53,0,3.23-.1,5.28-.1,2.03-.42,3.45-.8,4.58-.67,2.05-1.33,2.6-1.59,2.79-1.21.9-3.03,1.1-3.37,1.06-1.74-.24-2.12-.77-3.49-2.45,0,0-2.29-3.75-3.2-6.03.17,3,.83,5.33,1.39,6.87.63,1.72,1.22,3.36,2.59,5.18,1.52,2.02,2.92,2.85,3.59,5.18.22.77.27,1.4.3,2.09.07,1.75.29,5.08-.56,10.05.16-.43.22-1.15.75-1.79.29-.35.93-1.11,2.04-1.59,1.1-.48,2.08-.42,2.64-.39,1.28.08,2.33.53,2.95.8,1.05.46,1.31.77,2.04.79.39.01.87-.07,1.78-.54,1.13-.59,1.88-1.26,2.96-2.3,1.9-1.81,1.83-1.88,2.68-2.56,1.97-1.58,2.85-1.61,3.17-1.6.87.02,1.56.44,1.97.76-.32-1.11-.64-2.22-.96-3.33Z"/>
  <path class="cls-1" d="M472.27,320.12c1.54.39,2.4,2.47,3.59,8.27.76,3.69,1.14,5.53,1.39,8.17.09.95.49,5.18.1,11.05-.31,4.71-.91,7.3-2.19,9.76-1.09,2.1-2.08,2.95-3.19,3.19-1.56.33-2.96-.66-3.29-.9-1.72-1.22-2.49-3.32-3.29-5.48-.53-1.44-.82-2.67-1.99-3.39-.23-.14-.88-.53-1.39-.3-.64.29-.62,1.35-.8,3.29-.23,2.57-.35,3.85-.9,4.98-.3.61-1.05,2.18-2.69,2.79-2.17.8-4.34-.67-4.68-.9-1.98-1.34-2.79-3.57-3.49-6.87-2.11-10.08.08-15,.8-23.5.05-.58.16-2.03,1.2-3.19.98-1.1,2.3-1.41,2.69-1.49,1.24-.28,2.26-.03,3.19.2,2.02.51,2.24,1.2,3.39,1.29,1.23.1,2.2-.66,4.08-2.19,3.23-2.62,3.97-4.47,6.37-4.78.45-.06.73-.09,1.1,0Z"/>
  <path class="cls-1" d="M476.44,354.05s-.82,14.3-.82,14.3c-.44,3.81-.83,6.95-1.11,9.08,0,0-.91,5.81-.75,12.4.06,2.39.27,3.71.6,5.83.44,2.79.8,3.66,1.05,4.18.56,1.17,1.32,2.03,2.84,3.73,1.94,2.18,2.6,2.35,2.99,2.39.56.07,1.07-.08,1.64.3.51.34.52.72,1.05,1.2.56.51,1.13.59,1.64.75,1.62.49,3.57,1.97,3.59,3.29,0,.8-.7,1.4-1.34,1.94-1.59,1.34-3.14,1.43-6.42,2.24-1.8.44-2.7.66-3.73,1.05-3.75,1.38-3.74,2.67-6.57,3.59-1,.32-4.51,1.3-7.62-.45-.58-.33-1.97-1.11-2.69-2.69-.6-1.32-.27-2.21,0-5.08.18-1.96.4-4.29.15-6.87-.28-2.83-.83-2.98-.9-5.38-.07-2.52.52-3.51.75-5.38.42-3.39-.86-5.27-2.39-9.71-1.53-4.46-.87-4.38-2.69-11.65-1.56-6.22-4.99-14.27-4.59-14.44.13-.06.71,1.18,1.85,1.99.66.47,1.25.69,1.4.74.37.13,2.18.77,3.87-.13,1.22-.65,1.74-1.75,2.1-2.51.59-1.25.68-2.44.77-3.63,0-.09.09-1.03.26-2.9.08-.9.13-1.39.5-1.63.53-.34,1-.11,1.19,0,.35.2.78.33,1.18.92s.77,1.65.94,2.02c1.03,2.3.87,2.54,1.43,3.56.48.86.95,1.7,1.9,2.42.53.41,1.51,1.16,2.76,1.1,1.65-.08,2.75-1.52,3.4-2.37,1.62-2.12,1.77-4.19,1.77-4.19Z"/>
  <path class="cls-1" d="M429.19,230.98c-.19,4.21.13,8.26,1.2,13.99,1.49,8.02,3.64,15.08,3.91,15.02.08-.02-.09-.68-.15-2.27-.05-1.28-.1-2.73.24-4.45.06-.31.37-1.81,1.24-3.63.83-1.74,1.25-1.83,1.76-3.1.5-1.24.51-2.16.57-4.29.04-1.37.11-3.53.24-6.38-.58-.24-1.43-.61-2.46-1.07-1.76-.79-2.64-1.19-3.22-1.56-.87-.56-2.18-1.67-3.22-4.01-.03.42-.07,1.03-.11,1.76Z"/>
  <path class="cls-1" d="M428.92,230.98c.19,4.21-.13,8.26-1.2,13.99-1.49,8.02-3.93,15.68-4.2,15.62-.08-.02.38-1.28.44-2.88.05-1.28.1-2.73-.24-4.45-.06-.31-.37-1.81-1.24-3.63-.83-1.74-1.25-1.83-1.76-3.1-.5-1.24-.51-2.16-.57-4.29-.04-1.37-.11-3.53-.24-6.38.58-.24,1.43-.61,2.46-1.07,1.76-.79,2.64-1.19,3.22-1.56.87-.56,2.18-1.67,3.22-4.01.03.42.07,1.03.11,1.76Z"/>
  <path class="cls-1" d="M409.94,83.49c.8-.36,2.94-2.09,3.92-3.03.35-.34.64-.67.9-1,.32-.94.63-2.29.3-3.78-.25-1.13-.74-1.79-1.29-2.79,0,0-.64-1.14-1.99-5.08-1.53-4.45-1.41-12.16-1.39-13.34.18-12.48,0-23.8,0-23.8.07-.67.28-1.68.95-2.64.67-.97,1.5-1.47,3.09-2.39,1.78-1.04,2.03-.88,3.19-1.69,1.48-1.04,1.37-1.51,2.49-2.29,1.73-1.21,3.64-1.26,5.08-1.29.69-.02,2.99-.05,5.48,1,.92.39,1.36.71,2.39.9,1.41.25,1.94-.11,3.29-.1,2.08.01,3.65.89,4.38,1.29,1.95,1.08,3.01,2.53,3.49,3.19,2.4,3.33,2.54,7.24,2.59,9.46.26,11.06-.08,13.02.05,19.17.06,2.63.28,9.97-1.59,15.34-.32.91-.92,2.39-2.29,3.68-.95.89-2.18,1.61-5.28,2.39-2.15.54-4.75,1.2-8.46,1.2-2.8,0-6.67-.05-10.95-2.09-2.02-.97-3.52-2.08-4.48-2.89"/>
  <path class="cls-1" d="M447.67,83.4c-.29-.09-4.01-1.91-4.84-3.73-.56-1.23.01-4.95.1-5.38"/>
  <path class="cls-1" d="M410.37,54.47c-.43.35-1.13,1.02-1.47,2.07-.07.21-.23.78-.07,2.39.11,1.15.28,2.73,1.12,4.63.27.6.67,1.4,1.28,2.27"/>
  <path class="cls-1" d="M446.87,54.47c.43.35,1.56,1.02,1.9,2.07.07.21.23.78.07,2.39-.11,1.15-.28,2.73-1.12,4.63-.27.6-.67,1.4-1.28,2.27"/>
  <path class="cls-2" d="M422.72,38.95c.12-.2.54-.71,1.04-1.01.49-.3,1.14-.36,1.37-.37"/>
  <path class="cls-2" d="M419.18,36.72c.38-.32.85-.67,1.39-1,1.04-.62,2.02-.95,2.79-1.15"/>
  <path class="cls-2" d="M418.49,33.78c.68-.59,1.67-1.4,2.94-2.29,1.23-.86,1.92-1.34,2.84-1.74.9-.39,2.46-.89,4.68-.75"/>
  <path class="cls-2" d="M415.1,35.42c.54-.94,1.3-2.19,2.34-3.59,1.06-1.43,2.05-2.75,3.63-4.13,1.91-1.66,3.57-2.4,6.87-3.88,1.14-.51,2.39-1.01,4.03-1.05.65-.02,1.19.04,1.54.1"/>
  <path class="cls-2" d="M418.14,27.95c.52-.77,1.25-1.67,2.24-2.54,2.13-1.86,4.39-2.61,5.73-2.94"/>
  <path class="cls-2" d="M413.95,33.63c-.15-.77-.34-2.27.15-4.03.14-.51.64-2.11,2.04-3.63.55-.6,1.09-1.02,1.49-1.29"/>
  <path class="cls-2" d="M425.36,28.25c.89-.57,2.23-1.3,3.98-1.79,1-.28,3.17-.78,5.93-.45,2.45.3,4.31,1.13,5.43,1.74"/>
  <path class="cls-2" d="M425.9,31.94c1.58-.57,4.32-1.33,7.77-1.15,3.7.2,6.49,1.4,8.02,2.19"/>
  <path class="cls-2" d="M427,34.58c1.93-.07,4.24-.01,6.82.35,2.24.31,4.21.79,5.88,1.29"/>
  <path class="cls-2" d="M437.56,25.02c.47-.14,2.03-.52,3.78.2,1.54.63,2.36,1.76,2.64,2.19"/>
  <path class="cls-2" d="M433.91,77.5c.78-.33,2.48-1.17,3.85-3.01,1.18-1.58,1.55-3.16,1.69-3.98"/>
  <path class="cls-2" d="M438.41,76.48c1.26-1.08,1.96-2.18,2.33-2.89.84-1.59,1.07-3.14,1.29-4.68.12-.83.17-1.52.2-1.99"/>
  <path class="cls-2" d="M420.21,76.6c-1.11-.98-1.73-1.95-2.08-2.61-.82-1.56-1.01-3.07-1.29-5.38-.11-.92-.17-1.68-.2-2.19"/>
  <path class="cls-2" d="M416.59,74.9c-.55-1.33-1.09-2.87-1.54-4.6-.73-2.82-1.02-5.37-1.1-7.47"/>
</svg>