<?xml version="1.0" encoding="UTF-8"?>
<svg id="Vrstva_1" data-name="Vrstva 1" xmlns="http://www.w3.org/2000/svg" viewBox="0 0 306.59 401.38">
  <defs>
    <style>
      .cls-1, .cls-2 {
        fill: none;
        stroke: #ff5e00;
        stroke-miterlimit: 10;
        justify-content: center;
        allign-items: center;
      }

      .cls-2 {
        stroke-width: .5px;
      }

      .ex {
        fill: blue;
      }

      .cls-1.clicked {
      fill: green;
    }

    </style>
  </defs>
  <path class="cls-1" id="Hand" d="m9.53,174.2c-.36,0-.54,1.13-1.24,3.55,0,0-.27,1.03-1.2,3.68-.31.9-1.04,2.93-2.09,5.28-1.94,4.33-2.68,4.6-3.39,7.27-.22.82-.34,1.94-.6,4.18-.31,2.72-.58,5.17-.5,8.37,0,.03.27,1.91.8,5.68.15,1.03.27,1.85.9,2.19.76.42,2.01,0,2.59-.8.62-.84.3-1.83.1-3.39-.12-.93-.46-3.62.2-5.98.81-2.88,2.4-2.7,2.89-5.58.2-1.19.08-2.11.8-3.19.6-.9,1.44-1.4,2.09-1.69-.02.8-.06,2.08-.1,3.68-.05,2.15-.05,2.74.3,3.49.14.3.88,1.86,2.29,1.99,1.36.12,2.53-1.17,2.89-2.29.23-.73.09-1.32,0-1.89-.03-.18-.65-4.13.6-7.37.3-.79.95-2.14,1.79-3.49.63-1.01.89-1.25,1-1.89.17-1.05-.32-1.66-.9-3.39-.21-.64-.49-1.59-.7-2.79-.62.12-1.56.23-2.69.1-.84-.1-2.56-.3-3.78-1.39-1.84-1.65-1.49-4.35-2.04-4.34Z"/>
  <path class="cls-1" id="Forearm" d="m9.53,174.2c2.15-4.75,3.72-8.63,4.78-11.34.85-2.19,1.15-3.04,1.99-5.08,1.18-2.85,2.09-4.74,4.28-9.26,5.08-10.48,5.35-10.91,6.07-11.75,1.8-2.09,2.65-2.35,6.17-6.17.88-.95,2.43-2.55,4.18-4.88.64-.84,1.14-1.57,1.49-2.09-.46.99-.98,2.39-1.2,4.13-.13,1.02-.17,2.27.03,3.68.12.83.3,2.01.96,3.39.26.53.65,1.37,1.39,2.14,1.55,1.61,3.5,1.99,4.18,2.09,3.01.45,5.75-.8,7.17-1.79,1.6-1.12,3.09-2.39,3.09-2.39.7-.6,1.05-.94,1.1-.9.13.12-2.48,2.78-5.18,6.62-1.76,2.51-2.94,4.64-3.78,6.17-1.99,3.62-2.05,4.4-3.59,7.07-1.76,3.06-3.49,5.16-4.58,6.47-3.45,4.15-6.94,6.98-10.01,9.46-4.14,3.35-4.67,3.22-5.88,4.98-1.48,2.16-2.03,4.32-4.18,5.08-.97.34-1.88.21-2.69.1-.91-.12-2.9-.38-4.37-2.04-1.23-1.4-1.42-3.03-1.46-3.7Z"/>
  <path class="cls-1" id="Biceps" d="m38.51,123.62c.4-1.44,1.16-3.24,2.69-6.82,1.29-3.02,1.94-4.53,2.94-6.32,1.39-2.5,2.52-4.54,4.78-6.57,2.01-1.81,3.94-2.74,4.66-3.06,3.24-1.46,6.03-1.52,8.27-1.54,3.07-.03,4.64-.05,6.12,1.05,1.75,1.29,2.24,3.27,2.64,4.88,1.29,5.23-.9,9.79-1.62,11.23-1.09,2.18-2.28,3.55-3.34,4.78-2.43,2.83-5.95,7.03-10.41,12.75-.66.77-1.68,1.8-3.11,2.74-1.64,1.08-3.07,1.55-3.36,1.64-1.48.47-4.41,1.41-7.1.07-2.05-1.02-2.99-2.88-3.36-3.61-1.89-3.74-.75-7.81.2-11.2Z"/>
  <path class="cls-1" id="Shoulder" d="m50.41,101.92c.56-2.7,1.49-6.6,3.04-11.2,1.77-5.27,2.71-7.95,4.78-10.66,3.37-4.4,7.68-6.33,9.86-7.27,8.03-3.48,15.43-2.09,18.42-1.49,2.3.46,4.16,1.09,5.48,1.59-1.82.58-4.45,1.63-7.17,3.59-3.1,2.23-4.19,4.12-7.17,7.87-6.41,8.06-10.54,13.25-15.93,14.14-1.13.19-2.97.19-5.68,1-2.49.74-4.41,1.73-5.63,2.44Z"/>
  <path class="cls-1" id="Traps" d="m79.83,68.65c2.47-1.65,4.62-2.54,5.62-2.96,3.03-1.28,4.54-1.91,5.66-2.5,0,0,1.06-.55,6.05-3.7h0s1.19-1.14,1.22-1.17c.05.84.12,2.03.17,3.46.22,5.91-.15,6.8-.37,7.24-.93,1.87-2.87,3.37-4.89,3.62-.93.12-1.14-.13-3.66-.77-2.95-.75-5.2-1.33-7.87-1.36-2.24-.03-3.67.35-3.82-.1-.06-.17.04-.53,1.89-1.77Z"/>
  <path class="cls-1" id="Chest" d="m62.31,98.53c2.89-1.47,4.95-3.04,6.27-4.18,2.03-1.75,3.35-3.37,5.98-6.57,2.56-3.13,2.49-3.38,4.38-5.53,2.28-2.59,3.57-4.06,5.58-5.48,3.14-2.21,6.08-2.91,9.76-3.78,3.56-.84,5.91-1.4,9.06-.9,2.01.32,5.03.81,6.97,3.19,1.19,1.45,1.4,3.51,1.79,7.57.25,2.64.42,5.94.2,10.56-.21,4.58-.32,6.87-1,8.46-1.74,4.1-5.2,6.22-7.57,7.67-1.6.98-6.01,3.6-12.25,3.63-1.18,0-8.93-.06-14.89-5.28-2.68-2.35-2.99-3.98-6.27-6.17-2.98-1.99-5.95-2.81-8.02-3.19Z"/>
  <path class="cls-1" id="Lats" d="m70.37,102.76c.19.83.43,2.04.6,3.54.04.36.07.63.07.72.05.93-.11,1.97-.47,5.35-.53,4.93-.48,6.06-.3,7.17.15.93.36,1.64,1.2,3.88,1.17,3.14,2.06,5.53,3.78,9.26,2.85,6.18,3.44,5.73,4.28,8.46,1.12,3.66.87,6.68.65,9.36-.56,6.78-1.17,14.31-1.95,22.8.69,0,1.68-.04,2.84-.22,1.14-.18,4.03-.63,6.26-2.2,2.77-1.95,3.64-5.01,4.33-7.43.86-3.01.78-5.4.62-10.1-.16-4.79-.61-4.57-.47-7.6.04-.87.49-3.59,1.38-9,.35-2.14.57-4.31.89-6.46.34-2.32.5-3.2.2-4.38-.49-1.95-1.82-3.16-3.09-4.28-4.67-4.13-7.19-6.15-9.26-8.02-2.71-2.43-2.53-2.76-6.07-6.07-2.24-2.09-4.16-3.71-5.48-4.78Z"/>
  <path class="cls-1" id="Abs" d="m112.55,112.97c-.3,0-.27-1.23-.9-2.09-.26-.35-1.12-1.32-4.78-1.2-5.35.18-9.11,2.43-10.01,2.99-2.05,1.28-3.61,2.25-4.03,4.03-.34,1.41.29,2.3.9,4.63.4,1.54.52,3.22.75,6.57.44,6.35.32,14.91.3,17.03-.03,3.64-.1,10.53.75,18.37.76,7.07,1.52,13.57,5,20.54,3.14,6.27,6.4,9.06,9.26,10.61,1.14.62,2.15,1,2.86,1.24,0,0,2.63-1.23,2.66-1.24,5.14-2.4,9.26-10.61,9.26-10.61,3.48-6.93,4.21-13.21,5-20.54.85-7.84.78-14.73.75-18.37-.02-2.12-.14-10.68.3-17.03.23-3.35.35-5.03.75-6.57.61-2.33,1.23-3.22.9-4.63-.42-1.78-1.98-2.75-4.03-4.03-.89-.56-4.65-2.81-10.01-2.99-3.66-.12-4.53.85-4.78,1.2-.63.86-.59,2.09-.9,2.09Z"/>
  <path class="cls-1" d="m97.76,125.27c2.15-.83,3.95-1.18,5.23-1.34,2.16-.27,4.3-.85,6.47-.85.44,0,1.53.02,2.14-.7.33-.38.4-.83.45-1.24.25-2.09.08-4.09.05-4.08-.02,0,.2.84.5,3.88.1,1.04.14,1.61.6,2.04.56.53,1.36.47,2.04.45,0,0,2.28-.08,5.38.25.5.05,2.26.26,4.43,1,1,.34,1.83.7,2.44,1"/>
  <path class="cls-1" d="m101.44,126.41c1.37-.47,2.56-.74,3.44-.9,1.49-.27,2.47-.44,3.73-.25,1.01.15,2.1.32,2.84,1.15,1.09,1.23.75,3.19.9,3.19.14,0-.21-1.91.8-3.19.78-.99,2.03-1.19,3.04-1.34,2.02-.32,3.74.23,5.48.8.79.26,1.42.51,1.84.7"/>
  <path class="cls-1" d="m97.56,141.25c3.21-.11,5.71-.14,7.32-.15,3.19-.02,5.27.03,6.41-1.37.43-.53.61-1.13.76-1.61.66-2.12.08-4.09.05-4.08-.02,0,.2.84.5,3.88.11,1.07.29,1.58.6,2.04.93,1.37,3.11,1.23,8.37,1.14,1.19-.02,3.19-.05,5.73-.05"/>
  <path class="cls-1" d="m100.95,142.84c2.22-.26,4.09-.34,5.48-.35,3.75-.04,4.55.37,5.03.9,1.07,1.18.72,3.19.9,3.19.17,0-.22-1.99.8-3.19.45-.53,1.28-1.03,5.03-1,1.52.01,3.6.12,6.07.5"/>
  <path class="cls-1" d="m97.56,157.81c3.21-.11,5.71-.14,7.32-.15,3.19-.02,5.27.03,6.41-1.37.43-.53.61-1.13.76-1.61.66-2.12.08-4.09.05-4.08-.02,0,.2.84.5,3.88.12,1.17.36,1.73.6,2.04.91,1.23,2.88,1.06,6.97.94,1.36-.04,3.45-.08,6.07-.08"/>
  <path class="cls-1" d="m100.95,159.4c2.22-.26,4.09-.34,5.48-.35,3.75-.04,4.55.37,5.03.9,1.07,1.18.72,3.19.9,3.19.17,0-.22-1.99.8-3.19.45-.53,1.28-1.03,5.03-1,1.52.01,3.6.12,6.07.5"/>
  <path class="cls-1" d="m112,167.84v21.92"/>
  <path class="cls-1" d="m79.13,173.69c1.75.08,4.36.43,7.18,1.72,5.22,2.39,7.9,6.53,9.56,9.16,3.05,4.84,4.38,9.67,6.37,16.93,1.04,3.79,1.81,7.33,4.98,10.36,1.51,1.44,3.07,2.29,4.18,2.79.47,3.73.37,6.75.2,8.76-.35,4.15-2.03,9.46-5.38,19.92,0,0-1.13,3.54-2.46,8.06-.01.03-.08.29-.1.36,0,.02-.03.09-.05.18,0,0,0,0,0,0-.04.14-2.2,6.6-2.46,6.56-.06,0,1.7-3.37.69-7.16-.13-.49-.26-.81-.5-1.39-1.28-3.15-2.89-4.67-4.55-7,0,0-1.45-2.04-2.85-4.97-.89-1.86-1.6-3.96-2.71-13.67-.48-4.22-.46-4.84-1.1-10.68-.25-2.24-.37-3.29-.89-7.65-1.83-15.48-1.95-16.87-2.99-19.77-1.54-4.29-3.54-7.49-4.13-8.41-1.11-1.73-2.17-3.11-3-4.11Z"/>
  <path class="cls-1" id="Quads" d="m78.34,173.24c-.4,2.32-1,5.76-1.79,9.93-1.78,9.38-3.16,15.28-3.88,18.67-2.82,13.19-3.45,24.5-3.73,30.02-.75,14.35.85,13.17,1.2,29.88,0,0,.06,2.93,2.91,11.88.36,1.13,1.07,3.27,2.54,3.59.6.13.96-.13,4.18-.9,1.12-.27,1.44-.32,1.79-.15.78.39.81,1.45,1.2,3.44.52,2.67.77,4,1.64,5.08,1.22,1.52,3.06,1.88,3.44,1.94,2.9.5,5.24-1.49,6.12-2.24,1.78-1.51,2.9-3.45,4.33-8.07,3.12-10.03,1.64-13.17,3.44-20.61.19-.8.62-2.47.15-4.48-.29-1.21-.81-2.17-2.39-4.48-1.48-2.17-2.23-3.26-3.29-4.56-3.31-4.06-4.22-11.84-5.38-22.71-1.02-9.57-.86-8.56-1.45-13.88-1.61-14.41-2.39-17.88-4-21.6-2.11-4.87-4.89-8.43-7.02-10.76Z"/>
  <path class="cls-1" d="m90.49,298.1c.98-.9,1.93-2.73,3.78-6.37,3.22-6.31,3.61-7.58,3.78-8.37.61-2.74.5-5.18.22-7.05"/>
  <path class="cls-1" d="m73.16,274.4c.01.34.02.82.02,1.38,0,1.52-.12,2.75-.22,3.6-.29,2.56-.56,2.76-1,5.78-.61,4.24-.06,3.75-.6,5.38-.25.75-.61,1.61-.2,2.19"/>
  <path class="cls-1" id="Calves" d="m70.57,292.12c-1.16,3.15-2.43,7.25-3.39,12.15-.29,1.51-1.13,6.03-1.39,12.15-.35,7.9.43,13.92,1.79,24.1,1.13,8.48,1.63,9.44,1.79,14.14.13,3.97-1.82,10.57-1,14.54.07.31.24,1.07.1,2.04-.27,1.88-1.48,2.79-2.84,4.48-2.09,2.6-1.26,2.97-3.44,5.83-1.19,1.57-2.31,2.59-3.88,4.03-2.67,2.45-3.79,2.92-4.93,4.93-.25.45-1.57,2.85-.75,3.81.47.55,1.38.32,1.79,1.1h0c.3,0,.49.46.59,1.28.14.13.27.2.36.24.13.05.38.08.54.11.19.03.2.03.26.07.31.22.13.54.47.92.26.29.61.38.77.42.4.11.47-.02.8.07.32.09.33.23.9.65.44.33.66.49,1,.57.11.03.51.12.97-.02.61-.19.65-.6,1.07-.65.38-.04.59.26,1.15.62.07.04.87.53,1.67.7.85.18,1.56-.03,1.93-.14,1.98-.58,2.62-2.3,5.25-4.61,1.93-1.69,2.55-1.61,3.06-2.79.67-1.53-.12-2.3.63-3.63.48-.85.93-.77,3.39-2.5,1.58-1.11,2.38-1.68,2.79-2.39.73-1.25.66-2.58.6-3.88-.08-1.67-.45-1.74-.7-4.08-.15-1.4-.23-2.22,0-3.29.29-1.33.79-1.75,1.2-2.79.77-1.99.24-3.86,0-4.98-.56-2.66-.28-5.72.3-11.85.53-5.69,2.08-9.91,3.59-14.04,2.35-6.44,3.53-9.66,4.48-11.65.16-.33.57-1.18.9-2.39.72-2.67.42-4.87.3-5.83-1.55-11.83-2.33-17.74-1.94-19.87.07-.37.81-1.42.33-1.68-.38-.21-1.48.1-2.42.78-.46.33-2.36,1.72-3.88,2.24-.12.04-2.64.87-4.93-.3-1.16-.59-1.97-1.74-3.59-4.03-1.18-1.68-1.33-2.22-2.24-2.99-1.18-.99-2.49-1.4-3.44-1.59Z"/>
  <path class="cls-1" id="Hands" d="m215.08,174.62c.36,0,.54,1.13,1.24,3.55,0,0,.27,1.03,1.2,3.68.31.9,1.04,2.93,2.09,5.28,1.94,4.33,2.68,4.6,3.39,7.27.22.82.34,1.94.6,4.18.31,2.72.58,5.17.5,8.37,0,.03-.27,1.91-.8,5.68-.15,1.03-.27,1.85-.9,2.19-.76.42-2.01,0-2.59-.8-.62-.84-.3-1.83-.1-3.39.12-.93.46-3.62-.2-5.98-.81-2.88-2.4-2.7-2.89-5.58-.2-1.19-.08-2.11-.8-3.19-.6-.9-1.44-1.4-2.09-1.69.02.8.06,2.08.1,3.68.05,2.15.05,2.74-.3,3.49-.14.3-.88,1.86-2.29,1.99-1.36.12-2.53-1.17-2.89-2.29-.23-.73-.09-1.32,0-1.89.03-.18.65-4.13-.6-7.37-.3-.79-.95-2.14-1.79-3.49-.63-1.01-.89-1.25-1-1.89-.17-1.05.32-1.66.9-3.39.21-.64.49-1.59.7-2.79.62.12,1.56.23,2.69.1.84-.1,2.56-.3,3.78-1.39,1.84-1.65,1.49-4.35,2.04-4.34Z"/>
  <path class="cls-1" id="Forearm" d="m215.08,174.62c-2.15-4.75-3.72-8.63-4.78-11.34-.85-2.19-1.15-3.04-1.99-5.08-1.18-2.85-2.09-4.74-4.28-9.26-5.08-10.48-5.35-10.91-6.07-11.75-1.8-2.09-2.65-2.35-6.17-6.17-.88-.95-2.43-2.55-4.18-4.88-.64-.84-1.14-1.57-1.49-2.09.46.99.98,2.39,1.2,4.13.13,1.02.17,2.27-.03,3.68-.12.83-.3,2.01-.96,3.39-.26.53-.65,1.37-1.39,2.14-1.55,1.61-3.5,1.99-4.18,2.09-3.01.45-5.75-.8-7.17-1.79-1.6-1.12-3.09-2.39-3.09-2.39-.7-.6-1.05-.94-1.1-.9-.13.12,2.48,2.78,5.18,6.62,1.76,2.51,2.94,4.64,3.78,6.17,1.99,3.62,2.05,4.4,3.59,7.07,1.76,3.06,3.49,5.16,4.58,6.47,3.45,4.15,6.94,6.98,10.01,9.46,4.14,3.35,4.67,3.22,5.88,4.98,1.48,2.16,2.03,4.32,4.18,5.08.97.34,1.88.21,2.69.1.91-.12,2.9-.38,4.37-2.04,1.23-1.4,1.42-3.03,1.46-3.7Z"/>
  <path class="cls-1" id="Biceps" d="m186.11,124.04c-.4-1.44-1.16-3.24-2.69-6.82-1.29-3.02-1.94-4.53-2.94-6.32-1.39-2.5-2.52-4.54-4.78-6.57-2.01-1.81-3.94-2.74-4.66-3.06-3.24-1.46-6.03-1.52-8.27-1.54-3.07-.03-4.64-.05-6.12,1.05-1.75,1.29-2.24,3.27-2.64,4.88-1.29,5.23.9,9.79,1.62,11.23,1.09,2.18,2.28,3.55,3.34,4.78,2.43,2.83,5.95,7.03,10.41,12.75.66.77,1.68,1.8,3.11,2.74,1.64,1.08,3.07,1.55,3.36,1.64,1.48.47,4.41,1.41,7.1.07,2.05-1.02,2.99-2.88,3.36-3.61,1.89-3.74.75-7.81-.2-11.2Z"/>
  <path class="ex" id="Shoulder" d="m174.2,102.33c-.56-2.7-1.49-6.6-3.04-11.2-1.77-5.27-2.71-7.95-4.78-10.66-3.37-4.4-7.68-6.33-9.86-7.27-8.03-3.48-15.43-2.09-18.42-1.49-2.3.46-4.16,1.09-5.48,1.59,1.82.58,4.45,1.63,7.17,3.59,3.1,2.23,4.19,4.12,7.17,7.87,6.41,8.06,10.54,13.25,15.93,14.14,1.13.19,2.97.19,5.68,1,2.49.74,4.41,1.73,5.63,2.44Z"/>
  <path class="cls-1" id="Traps" d="m144.78,69.07c-2.47-1.65-4.62-2.54-5.62-2.96-3.03-1.28-4.54-1.91-5.66-2.5,0,0-1.06-.55-6.05-3.7h0s-1.19-1.14-1.22-1.17c-.05.84-.12,2.03-.17,3.46-.22,5.91.15,6.8.37,7.24.93,1.87,2.87,3.37,4.89,3.62.93.12,1.14-.13,3.66-.77,2.95-.75,5.2-1.33,7.87-1.36,2.24-.03,3.67.35,3.82-.1.06-.17-.04-.53-1.89-1.77Z"/>
  <path class="cls-1" id="Chest" d="m162.3,98.95c-2.89-1.47-4.95-3.04-6.27-4.18-2.03-1.75-3.35-3.37-5.98-6.57-2.56-3.13-2.49-3.38-4.38-5.53-2.28-2.59-3.57-4.06-5.58-5.48-3.14-2.21-6.08-2.91-9.76-3.78-3.56-.84-5.91-1.4-9.06-.9-2.01.32-5.03.81-6.97,3.19-1.19,1.45-1.4,3.51-1.79,7.57-.25,2.64-.42,5.94-.2,10.56.21,4.58.32,6.87,1,8.46,1.74,4.1,5.2,6.22,7.57,7.67,1.6.98,6.01,3.6,12.25,3.63,1.18,0,8.93-.06,14.89-5.28,2.68-2.35,2.99-3.98,6.27-6.17,2.98-1.99,5.95-2.81,8.02-3.19Z"/>
  <path class="cls-1" id="Lats" d="m154.24,103.18c-.19.83-.43,2.04-.6,3.54-.04.36-.07.63-.07.72-.05.93.11,1.97.47,5.35.53,4.93.48,6.06.3,7.17-.15.93-.36,1.64-1.2,3.88-1.17,3.14-2.06,5.53-3.78,9.26-2.85,6.18-3.44,5.73-4.28,8.46-1.12,3.66-.87,6.68-.65,9.36.56,6.78,1.17,14.31,1.95,22.8-.69,0-1.68-.04-2.84-.22-1.14-.18-4.03-.63-6.26-2.2-2.77-1.95-3.64-5.01-4.33-7.43-.86-3.01-.78-5.4-.62-10.1.16-4.79.61-4.57.47-7.6-.04-.87-.49-3.59-1.38-9-.35-2.14-.57-4.31-.89-6.46-.34-2.32-.5-3.2-.2-4.38.49-1.95,1.82-3.16,3.09-4.28,4.67-4.13,7.19-6.15,9.26-8.02,2.71-2.43,2.53-2.76,6.07-6.07,2.24-2.09,4.16-3.71,5.48-4.78Z"/>
  <path class="cls-1" d="m145.49,174.11c-1.75.08-4.36.43-7.18,1.72-5.22,2.39-7.9,6.53-9.56,9.16-3.05,4.84-4.38,9.67-6.37,16.93-1.04,3.79-1.81,7.33-4.98,10.36-1.51,1.44-3.07,2.29-4.18,2.79-.47,3.73-.37,6.75-.2,8.76.35,4.15,2.03,9.46,5.38,19.92,0,0,1.13,3.54,2.46,8.06.01.03.08.29.1.36,0,.02.03.09.05.18,0,0,0,0,0,0,.04.14,2.2,6.6,2.46,6.56.06,0-1.7-3.37-.69-7.16.13-.49.26-.81.5-1.39,1.28-3.15,2.89-4.67,4.55-7,0,0,1.45-2.04,2.85-4.97.89-1.86,1.6-3.96,2.71-13.67.48-4.22.46-4.84,1.1-10.68.25-2.24.37-3.29.89-7.65,1.83-15.48,1.95-16.87,2.99-19.77,1.54-4.29,3.54-7.49,4.13-8.41,1.11-1.73,2.17-3.11,3-4.11Z"/>
  <path class="cls-1" id="Quads" d="m146.27,173.66c.4,2.32,1,5.76,1.79,9.93,1.78,9.38,3.16,15.28,3.88,18.67,2.82,13.19,3.45,24.5,3.73,30.02.75,14.35-.85,13.17-1.2,29.88,0,0-.06,2.93-2.91,11.88-.36,1.13-1.07,3.27-2.54,3.59-.6.13-.96-.13-4.18-.9-1.12-.27-1.44-.32-1.79-.15-.78.39-.81,1.45-1.2,3.44-.52,2.67-.77,4-1.64,5.08-1.22,1.52-3.06,1.88-3.44,1.94-2.9.5-5.24-1.49-6.12-2.24-1.78-1.51-2.9-3.45-4.33-8.07-3.12-10.03-1.64-13.17-3.44-20.61-.19-.8-.62-2.47-.15-4.48.29-1.21.81-2.17,2.39-4.48,1.48-2.17,2.23-3.26,3.29-4.56,3.31-4.06,4.22-11.84,5.38-22.71,1.02-9.57.86-8.56,1.45-13.88,1.61-14.41,2.39-17.88,4-21.6,2.11-4.87,4.89-8.43,7.02-10.76Z"/>
  <path class="cls-1" d="m134.12,298.51c-.98-.9-1.93-2.73-3.78-6.37-3.22-6.31-3.61-7.58-3.78-8.37-.61-2.74-.5-5.18-.22-7.05"/>
  <path class="cls-1" d="m151.45,274.81c-.01.34-.02.82-.02,1.38,0,1.52.12,2.75.22,3.6.29,2.56.56,2.76,1,5.78.61,4.24.06,3.75.6,5.38.25.75.61,1.61.2,2.19"/>
  <path class="cls-1" id="Calves" d="m154.04,292.54c1.16,3.15,2.43,7.25,3.39,12.15.29,1.51,1.13,6.03,1.39,12.15.35,7.9-.43,13.92-1.79,24.1-1.13,8.48-1.63,9.44-1.79,14.14-.13,3.97,1.82,10.57,1,14.54-.07.31-.24,1.07-.1,2.04.27,1.88,1.48,2.79,2.84,4.48,2.09,2.6,1.26,2.97,3.44,5.83,1.19,1.57,2.31,2.59,3.88,4.03,2.67,2.45,3.79,2.92,4.93,4.93.25.45,1.57,2.85.75,3.81-.47.55-1.38.32-1.79,1.1h0c-.3,0-.49.46-.59,1.28-.14.13-.27.2-.36.24-.13.05-.38.08-.54.11-.19.03-.2.03-.26.07-.31.22-.13.54-.47.92-.26.29-.61.38-.77.42-.4.11-.47-.02-.8.07-.32.09-.33.23-.9.65-.44.33-.66.49-1,.57-.11.03-.51.12-.97-.02-.61-.19-.65-.6-1.07-.65-.38-.04-.59.26-1.15.62-.07.04-.87.53-1.67.7-.85.18-1.56-.03-1.93-.14-1.98-.58-2.62-2.3-5.25-4.61-1.93-1.69-2.55-1.61-3.06-2.79-.67-1.53.12-2.3-.63-3.63-.48-.85-.93-.77-3.39-2.5-1.58-1.11-2.38-1.68-2.79-2.39-.73-1.25-.66-2.58-.6-3.88.08-1.67.45-1.74.7-4.08.15-1.4.23-2.22,0-3.29-.29-1.33-.79-1.75-1.2-2.79-.77-1.99-.24-3.86,0-4.98.56-2.66.28-5.72-.3-11.85-.53-5.69-2.08-9.91-3.59-14.04-2.35-6.44-3.53-9.66-4.48-11.65-.16-.33-.57-1.18-.9-2.39-.72-2.67-.42-4.87-.3-5.83,1.55-11.83,2.33-17.74,1.94-19.87-.07-.37-.81-1.42-.33-1.68.38-.21,1.48.1,2.42.78.46.33,2.36,1.72,3.88,2.24.12.04,2.64.87,4.93-.3,1.16-.59,1.97-1.74,3.59-4.03,1.18-1.68,1.33-2.22,2.24-2.99,1.18-.99,2.49-1.4,3.44-1.59Z"/>
  <path class="cls-1" d="m98.38,58.32c.44-5.15.33-9.19.12-11.38-.29-3.04-.86-3.17-.66-4.84.04-.35.14-1.08-.28-1.49-.45-.43-1.09-.09-1.89-.4-.17-.06-.77-.32-1.49-1.59-.41-.72-.97-1.97-1.24-6.52-.13-2.16-.06-2.87.45-3.44.83-.92,1.89-1.05,1.89-1.05.54-.07,1.08.04,1.15-.14.04-.12-.16-.31-.34-.45-.37-.42-.88-1.07-1.34-1.94-.31-.59-.98-2-1.2-6.8-.13-3.06-.19-4.67.37-6.82.37-1.39.55-2.08,1.08-2.91,1-1.56,2.45-2.45,2.17-3.25-.1-.27-.34-.36-.63-1.01-.2-.43-.29-.64-.22-.86.2-.63,1.61-.73,1.83-.75.79-.05,1,.15,1.31-.07.43-.31.16-.85.63-1.31.46-.44,1.18-.38,1.27-.37.7.07.85.53,1.46.56.54.03.93-.31,1.18-.49.29-.21.96-.58,3.88-.52,4.34.09,7.21.75,7.21.75,3.17.73,5.33,1.22,7.77,2.82,1.07.7,4.5,3.01,6.24,7.39.88,2.21,1,4.15,1.1,5.75.17,2.69.28,4.42-.45,5.98-.54,1.14-.69,2.46-1.33,3.55-.04.06-.15.25-.12.49.07.46.67.73,1.05.9.75.33.99.19,1.39.4.35.18.74.59,1,1.84.27,1.27.22,2.54-.3,5.18-.7,3.57-1.15,4.06-1.59,4.26-.16.07-.92.38-1.89.65-.58.16-.64.14-.8.25-.61.45-.47,1.41-.55,2.79-.07,1.3-.25,1.54-.4,2.74-.23,1.96-.36,6.51.04,12.52"/>
  <path class="cls-1" d="m96.49,27.15c-.04-1.74-.14-3.15-.22-4.11-.17-1.98-.31-2.62-.22-3.96.06-.93.14-2.04.67-3.36.1-.25.58-1.42,1.64-2.61.57-.65.92-1.03,1.49-1.2.92-.26,1.75.23,2.39.52.86.39,2.24.49,5,.67,2.62.18,5.15.35,8.14-.45,2.81-.75,4.22-1.12,5.15-1.57.8-.39,1.4-.76,2.17-.6.81.17,1.49.87,2.39,2.76.74,1.56,1.69,3.6,2.02,6.72.22,2.15-.22,3.41.52,5.68.22.68.47,1.22.65,1.57"/>
  <path class="cls-1" d="m97.46,40.75c.04.88.21,2.21.82,3.66.38.9,1.27,2.64,3.97,4.79,3.83,3.04,8.17,4.38,10.82,5,1.49-.38,7.15-1.96,10.76-5.9.9-.99,2.27-2.52,2.84-4.93.29-1.22.28-2.27.22-2.99"/>
</svg>
